<svg id="Layer_1" data-name="Layer 1" xmlns="http://www.w3.org/2000/svg" width="1003.26" height="300" viewBox="0 0 1003.26 300">
  <g>
    <path d="M262.37,219.48c.05,4.2-1.49,6.67-5.17,8.78q-60.84,35-121.47,70.29c-3.15,1.83-5.71,2-9,.09q-60.37-35.08-121-69.86c-4.1-2.35-6.11-5.18-5.62-9.91a31.26,31.26,0,0,0,0-7.17c-.68-5.29,1.73-8.31,6.23-10.88q56.1-32.07,112-64.45,31.39-18.09,62.82-36.09c9.87-5.63,23.39,2.6,24.28,13.82.75,9.42-2.41,14.67-10.85,19.44C150.67,158.38,107.16,184,63.5,209.3c-1.51.87-2.94,1.88-4.49,2.66-4.37,2.2-3.6,3.95.16,6.11,16.62,9.51,33.16,19.15,49.73,28.74,5.84,3.38,11.78,6.6,17.5,10.16,3.39,2.12,6.21,1.93,9.64-.07,28.39-16.54,56.8-33,85.38-49.25,4.79-2.72,5.44-6.39,5-10.85-.49-4.83,2.59-11.61-1.64-14-3.58-2-8.25,3.5-12.32,5.84q-38.2,21.94-76.24,44.19c-3.65,2.14-6.56,2.16-10.18-.1-7.75-4.84-15.79-9.21-23.66-13.84-6.45-3.79-6.49-4.28.23-8.16q44.08-25.46,88.26-50.78,31.4-18.08,62.79-36.14c2.17-1.24,4.38-4,6.93-2.49,2.14,1.29,1.09,4.42,1.1,6.74.07,15,0,30,0,45" style="fill: #45ab34"/>
    <path d="M.37,126.06c0-14.8.19-29.6-.1-44.39C.17,76.29,1.78,73,6.66,70.18q58.89-33.72,117.47-68c4.93-2.88,9-3,13.85.06,6.77,4.34,13.84,8.21,20.82,12.22,6.81,3.91,6.87,4.31-.23,8.45q-30.47,17.72-61,35.32C79.14,69,60.8,79.83,42.23,90.28c-5,2.82-7.46,6.15-6.8,11.93a76.1,76.1,0,0,1,.06,9.79c-.07,5.3,2,6,6.36,3.38q32.1-18.78,64.36-37.3C130.71,64,155.31,50,179.68,35.66c5.76-3.39,10.23-3.37,16.08.15C215.33,47.56,235.29,58.68,255.12,70c9.11,5.21,9.68,22.36.77,27.72-7.82,4.71-15.83,9.11-23.67,13.8-3.75,2.24-6.35,1.6-5.51-2.91,2.36-12.61-9.73-17-16.77-21.82-5.71-3.9-10.26-7.85-16-11.73-4.22-2.84-7.71-2.61-12-.12Q115.7,113.57,49.32,152,28.43,164.07,7.56,176.22C.79,180.14.23,179.8.22,171.75q0-22.84,0-45.69Z" style="fill: #058236"/>
    <path d="M313.6,125.93l8.94-17.52a71.74,71.74,0,0,0,36.91,10.44c15.28,0,21.62-4.48,21.62-10.82,0-18.63-65.24-6-65.24-43.24,0-17.15,15.29-31.31,47.35-31.31A78.06,78.06,0,0,1,402,42.42l-7.83,17.52c-9.69-4.84-20.13-7.82-30.94-7.82-15.29,0-21.25,5.21-21.25,11.55,0,18.64,65.24,5.59,65.24,42.87,0,16.78-15.66,31.32-47.72,31.32C341.56,137.49,323.66,132.64,313.6,125.93Z" style="fill: #45ab34"/>
    <path d="M446.31,54H410.52V35h97.67V54H472.41v81.64h-26.1Z" style="fill: #45ab34"/>
    <path d="M513.41,85.29c0-29.82,26.1-52.19,61.14-52.19s61.14,22,61.14,52.19-26.1,52.2-61.14,52.2S513.41,115.12,513.41,85.29Zm96.56,0c0-19-14.91-32.06-35.05-32.06s-35,13.05-35,32.06,14.91,32.06,35,32.06S610,104.31,610,85.29Z" style="fill: #45ab34"/>
    <path d="M727,135.62l-21.62-28H681.54v28H655.45V35h48.46c29.82,0,48.84,13.79,48.84,36.53,0,14.91-8.58,26.1-23.12,31.69L755,135.62ZM702.79,54H681.54V89h21.25c16,0,23.86-6.71,23.86-17.52S718.45,54,702.79,54Z" style="fill: #45ab34"/>
    <path d="M847.06,114H794.87l-10.06,21.62H758.34L808.29,35H834l50,100.65H856.76Zm-8.2-17.52L821,58.08l-17.9,38.4Z" style="fill: #45ab34"/>
    <path d="M936.91,96.11,922,110.27v25.35H896.27V35H922v47l49.58-47h28.7L954.06,79.7l49.2,55.92H973.07Z" style="fill: #45ab34"/>
    <g>
      <path d="M364.14,266.9a52.81,52.81,0,0,1-19.46-3.5,46.1,46.1,0,0,1-15.43-9.82,45,45,0,0,1-10.16-14.91,50.26,50.26,0,0,1,0-37.46,44.45,44.45,0,0,1,10.23-14.9,46.57,46.57,0,0,1,15.5-9.83,52.72,52.72,0,0,1,19.45-3.5,54.49,54.49,0,0,1,19.32,3.3,38.38,38.38,0,0,1,15,10l-6.06,6.2a34.52,34.52,0,0,0-12.8-8.31,44.23,44.23,0,0,0-15-2.51,42.86,42.86,0,0,0-15.77,2.83,37.3,37.3,0,0,0-20.84,20.19,40.51,40.51,0,0,0,0,30.4,37.15,37.15,0,0,0,20.84,20.25,42.28,42.28,0,0,0,15.63,2.83,46.67,46.67,0,0,0,15-2.37,34.93,34.93,0,0,0,13-8l5.54,7.39a44.61,44.61,0,0,1-15.44,8.77A57.53,57.53,0,0,1,364.14,266.9ZM388.67,254v-34H398v35.22Z" style="fill: #058236"/>
      <path d="M472.69,266.11V173.78h34.56q11.75,0,20.18,3.75a29.08,29.08,0,0,1,13,10.82q4.56,7.07,4.55,17.08a30.29,30.29,0,0,1-4.55,16.82,29.08,29.08,0,0,1-13,10.82q-8.45,3.75-20.18,3.75H478.1l4.35-4.48v33.77Zm9.76-33-4.35-4.62H507q13.85,0,21-6.06t7.19-17q0-11.09-7.19-17.15t-21-6.06H478.1l4.35-4.62Zm53.29,33L512,232.6h10.55l23.87,33.51Z" style="fill: #058236"/>
      <path d="M655.51,266.9a52.46,52.46,0,0,1-19.33-3.5,45.49,45.49,0,0,1-25.59-24.79,49.93,49.93,0,0,1,0-37.33,45.6,45.6,0,0,1,25.53-24.8,55.07,55.07,0,0,1,38.64,0,46.1,46.1,0,0,1,15.37,9.83,45,45,0,0,1,10.16,14.9,50.26,50.26,0,0,1,0,37.46,45,45,0,0,1-10.16,14.91,46.24,46.24,0,0,1-15.37,9.82A51.89,51.89,0,0,1,655.51,266.9Zm0-8.71a40.79,40.79,0,0,0,15.36-2.83,36.44,36.44,0,0,0,12.27-8.05,37.54,37.54,0,0,0,8.11-12.14,41.44,41.44,0,0,0,0-30.46,37.64,37.64,0,0,0-8.11-12.14,36.59,36.59,0,0,0-12.27-8,41,41,0,0,0-15.36-2.83,41.6,41.6,0,0,0-15.44,2.83,36.78,36.78,0,0,0-20.57,20.19,41.28,41.28,0,0,0,0,30.4,36.64,36.64,0,0,0,20.57,20.25A41.39,41.39,0,0,0,655.51,258.19Z" style="fill: #058236"/>
      <path d="M810.09,266.9q-17.67,0-27.83-10.16T772.1,226.67V173.78h9.76v52.49q0,16.36,7.39,24.14t20.84,7.78q13.59,0,21-7.78t7.39-24.14V173.78H848v52.89q0,19.92-10.09,30.07T810.09,266.9Z" style="fill: #058236"/>
      <path d="M924.45,266.11V173.78H959q11.73,0,20.18,3.75a29.13,29.13,0,0,1,13,10.82q4.55,7.07,4.55,17.08a30.38,30.38,0,0,1-4.55,16.82,29.5,29.5,0,0,1-13,10.88Q970.74,237,959,237H929.86l4.35-4.62v33.77Zm9.76-33-4.35-4.75h28.88q13.85,0,21-6T987,205.43q0-11.09-7.19-17.15t-21-6.06H929.86l4.35-4.62Z" style="fill: #058236"/>
    </g>
  </g>
</svg>
