<svg width="867" height="589" viewBox="0 0 867 589" fill="none" xmlns="http://www.w3.org/2000/svg">
<path d="M765.466 0.821845C764.656 0.651075 763.955 1.1828 763.901 2.00949C763.848 2.83618 764.461 3.64478 765.272 3.81555L765.466 0.821845ZM613.023 460.803L613.935 459.746L613.023 460.803ZM555.272 228.931L556.677 229.58L555.272 228.931ZM9.89335 587.634C10.4286 588.339 11.358 588.535 11.9691 588.071L21.9281 580.513C22.5392 580.049 22.6007 579.101 22.0654 578.396C21.5301 577.691 20.6008 577.495 19.9896 577.959L11.1372 584.677L3.38354 574.46C2.84825 573.755 1.9189 573.559 1.30778 574.023C0.696643 574.487 0.635158 575.435 1.17044 576.14L9.89335 587.634ZM12.4677 587.103C12.5825 585.333 12.7025 583.577 12.8277 581.835L9.89352 581.196C9.76787 582.945 9.64739 584.708 9.53211 586.485L12.4677 587.103ZM13.6399 571.552C13.9309 568.179 14.2423 564.862 14.5737 561.599L11.6472 560.872C11.3143 564.15 11.0015 567.482 10.7091 570.869L13.6399 571.552ZM15.6274 551.973C16.0173 548.658 16.4289 545.402 16.8619 542.204L13.9471 541.379C13.5117 544.594 13.0979 547.867 12.706 551.199L15.6274 551.973ZM18.3319 532.095C18.8464 528.792 19.3852 525.555 19.9479 522.382L17.0515 521.439C16.4851 524.632 15.943 527.889 15.4255 531.212L18.3319 532.095ZM21.7074 513.058C22.3777 509.714 23.0764 506.447 23.8029 503.255L20.9338 502.176C20.2017 505.393 19.4979 508.684 18.8229 512.052L21.7074 513.058ZM26.1333 493.639C26.9392 490.512 27.7739 487.463 28.6369 484.491L25.809 483.252C24.938 486.253 24.0958 489.329 23.2831 492.482L26.1333 493.639ZM31.5003 475.217C32.5411 472.045 33.617 468.968 34.7272 465.983L31.9622 464.554C30.8394 467.573 29.7519 470.684 28.7004 473.888L31.5003 475.217ZM38.1596 457.302C39.4346 454.267 40.7487 451.338 42.1008 448.51L39.4288 446.862C38.058 449.729 36.7266 452.697 35.4356 455.77L38.1596 457.302ZM46.4198 440.054C47.9212 437.302 49.4632 434.659 51.0448 432.12L48.5097 430.222C46.9017 432.803 45.335 435.489 43.8106 438.283L46.4198 440.054ZM56.3533 424.191C58.1686 421.669 60.0291 419.266 61.9333 416.979L59.5976 414.805C57.6558 417.137 55.7599 419.586 53.9113 422.154L56.3533 424.191ZM68.1957 410.022C70.3592 407.802 72.5724 405.711 74.8332 403.742L72.7691 401.29C70.4583 403.303 68.1973 405.439 65.988 407.705L68.1957 410.022ZM82.0444 397.986C84.5371 396.167 87.0813 394.478 89.6746 392.911L87.9467 390.214C85.2941 391.817 82.6918 393.545 80.1423 395.405L82.0444 397.986ZM97.7675 388.487C100.539 387.123 103.36 385.881 106.229 384.753L104.871 381.874C101.94 383.026 99.0566 384.295 96.2233 385.689L97.7675 388.487ZM115.016 381.694C117.996 380.784 121.022 379.981 124.092 379.278L123.094 376.287C119.967 377.003 116.881 377.821 113.841 378.751L115.016 381.694ZM133.344 377.477C136.462 376.972 139.621 376.557 142.819 376.225L142.134 373.183C138.889 373.519 135.68 373.941 132.509 374.455L133.344 377.477ZM152.344 375.482C155.543 375.31 158.777 375.211 162.042 375.178L161.61 372.122C158.308 372.155 155.034 372.255 151.793 372.429L152.344 375.482ZM171.717 375.265C174.958 375.352 178.226 375.495 181.521 375.688L181.281 372.635C177.959 372.441 174.661 372.297 171.389 372.209L171.717 375.265ZM191.28 376.391C194.538 376.668 197.818 376.986 201.119 377.339L201.017 374.298C197.697 373.943 194.396 373.623 191.116 373.345L191.28 376.391ZM210.93 378.478C214.194 378.885 217.475 379.319 220.773 379.776L220.761 376.747C217.453 376.288 214.158 375.852 210.879 375.443L210.93 378.478ZM230.619 381.195C233.885 381.682 237.165 382.184 240.456 382.698L240.495 379.675C237.198 379.161 233.912 378.658 230.637 378.17L230.619 381.195ZM250.325 384.259C253.596 384.782 256.875 385.31 260.163 385.838L260.215 382.818C256.928 382.29 253.647 381.761 250.375 381.238L250.325 384.259ZM270.043 387.417C273.32 387.936 276.604 388.451 279.891 388.955L279.922 385.932C276.641 385.428 273.362 384.914 270.088 384.396L270.043 387.417ZM289.765 390.433C293.054 390.911 296.345 391.375 299.637 391.818L299.614 388.787C296.334 388.345 293.053 387.883 289.774 387.406L289.765 390.433ZM309.51 393.083C312.805 393.481 316.098 393.854 319.39 394.197L319.28 391.156C316.006 390.815 312.729 390.443 309.449 390.046L309.51 393.083ZM329.263 395.132C332.555 395.41 335.843 395.653 339.125 395.856L338.895 392.804C335.635 392.603 332.369 392.362 329.097 392.085L329.263 395.132ZM348.983 396.337C352.263 396.454 355.535 396.525 358.799 396.544L358.412 393.487C355.177 393.468 351.932 393.398 348.678 393.282L348.983 396.337ZM368.601 396.443C371.859 396.354 375.105 396.209 378.339 396.002L377.76 392.95C374.561 393.155 371.348 393.299 368.123 393.387L368.601 396.443ZM388.014 395.187C391.226 394.85 394.424 394.445 397.606 393.967L396.801 390.94C393.659 391.412 390.501 391.811 387.326 392.145L388.014 395.187ZM407.071 392.317C410.203 391.692 413.317 390.99 416.412 390.206L415.355 387.229C412.305 388.003 409.233 388.695 406.143 389.311L407.071 392.317ZM425.581 387.617C428.587 386.679 431.573 385.655 434.536 384.542L433.213 381.649C430.295 382.745 427.354 383.753 424.392 384.678L425.581 387.617ZM443.328 380.941C446.158 379.682 448.965 378.335 451.748 376.893L450.159 374.118C447.419 375.537 444.656 376.864 441.87 378.103L443.328 380.941ZM460.021 372.284C462.657 370.709 465.268 369.042 467.855 367.281L466.016 364.655C463.47 366.389 460.898 368.03 458.303 369.581L460.021 372.284ZM475.45 361.771C477.907 359.877 480.338 357.889 482.743 355.804L480.683 353.349C478.313 355.403 475.917 357.362 473.497 359.228L475.45 361.771ZM489.568 349.556C491.818 347.382 494.042 345.117 496.24 342.758L493.994 340.481C491.825 342.81 489.631 345.045 487.412 347.188L489.568 349.556ZM502.409 335.798C504.391 333.451 506.349 331.02 508.282 328.504L505.887 326.405C503.976 328.892 502.041 331.293 500.084 333.61L502.409 335.798ZM514.009 320.697C515.751 318.21 517.471 315.648 519.169 313.008L516.653 311.08C514.973 313.692 513.271 316.227 511.548 318.686L514.009 320.697ZM524.129 304.968C525.76 302.211 527.369 299.378 528.955 296.465L526.345 294.696C524.773 297.582 523.179 300.389 521.564 303.119L524.129 304.968ZM533.312 288.148C534.708 285.379 536.085 282.545 537.442 279.642L534.76 278.015C533.414 280.894 532.048 283.706 530.664 286.451L533.312 288.148ZM541.453 270.731C542.729 267.789 543.986 264.781 545.223 261.708L542.484 260.213C541.255 263.265 540.007 266.251 538.741 269.172L541.453 270.731ZM548.624 252.967C549.741 249.996 550.841 246.966 551.923 243.878L549.141 242.498C548.065 245.567 546.972 248.578 545.863 251.53L548.624 252.967ZM555.119 234.436C555.642 232.832 556.162 231.214 556.677 229.58L553.867 228.282C553.355 229.906 552.838 231.516 552.318 233.11L555.119 234.436ZM556.677 229.58C557.193 227.942 557.699 226.315 558.194 224.698L555.378 223.42C554.885 225.03 554.381 226.651 553.867 228.282L556.677 229.58ZM561.045 215.121C561.954 211.97 562.823 208.861 563.653 205.793L560.811 204.604C559.986 207.657 559.121 210.751 558.216 213.887L561.045 215.121ZM566.024 196.712C566.849 193.433 567.627 190.203 568.36 187.023L565.493 185.936C564.764 189.098 563.99 192.31 563.17 195.571L566.024 196.712ZM570.499 177.266C571.163 174.066 571.78 170.919 572.35 167.825L569.457 166.862C568.891 169.935 568.278 173.061 567.618 176.24L570.499 177.266ZM573.998 158.208C574.542 154.774 575.026 151.409 575.452 148.111L572.535 147.303C572.113 150.572 571.633 153.91 571.093 157.317L573.998 158.208ZM576.557 138.421C576.891 135.024 577.161 131.704 577.368 128.462L574.432 127.847C574.227 131.053 573.961 134.338 573.629 137.702L576.557 138.421ZM577.823 118.227C577.903 114.905 577.914 111.671 577.857 108.525L574.915 108.162C574.971 111.262 574.961 114.452 574.881 117.733L577.823 118.227ZM577.391 97.9081C577.147 94.4695 576.816 91.1491 576.402 87.9456L573.487 87.9365C573.892 91.0749 574.217 94.3331 574.457 97.7127L577.391 97.9081ZM574.664 77.4116C573.963 73.9606 573.155 70.668 572.247 67.5322L569.437 68.0308C570.318 71.0716 571.104 74.2735 571.788 77.6392L574.664 77.4116ZM568.656 57.1563C567.237 53.6823 565.673 50.4502 563.979 47.4574L561.494 48.724C563.107 51.5738 564.604 54.6664 565.97 58.0081L568.656 57.1563ZM557.968 38.4901C555.591 35.4954 553.047 32.8504 550.363 30.551L548.686 32.7997C551.186 34.9413 553.568 37.4154 555.805 40.2333L557.968 38.4901ZM541.39 24.3999C538.224 22.7144 534.942 21.4277 531.579 20.5288L531.225 23.4843C534.36 24.3223 537.411 25.5191 540.347 27.0829L541.39 24.3999ZM521.519 18.993C518.261 18.851 514.968 19.0378 511.666 19.5421L512.477 22.5683C515.617 22.0888 518.734 21.9135 521.801 22.0473L521.519 18.993ZM502.264 21.8278C499.302 22.8155 496.353 24.0525 493.438 25.5312L495.009 28.3155C497.821 26.8885 500.658 25.6993 503.499 24.7522L502.264 21.8278ZM485.416 30.2752C482.888 31.9894 480.401 33.8913 477.969 35.9762L480.02 38.4402C482.385 36.4124 484.8 34.5658 487.25 32.9041L485.416 30.2752ZM471.089 42.5269C469.003 44.723 466.973 47.0648 465.008 49.549L467.383 51.675C469.302 49.2478 471.284 46.962 473.318 44.8204L471.089 42.5269ZM459.447 57.2394C457.736 59.8262 456.092 62.5357 454.524 65.3651L457.125 67.1513C458.661 64.3792 460.271 61.7263 461.945 59.1949L459.447 57.2394ZM450.207 73.8778C448.877 76.7527 447.621 79.7315 446.446 82.8122L449.203 84.2618C450.356 81.238 451.589 78.3153 452.893 75.4958L450.207 73.8778ZM443.302 91.9317C442.349 95.0131 441.473 98.1828 440.681 101.439L443.541 102.559C444.319 99.3579 445.179 96.2432 446.116 93.2165L443.302 91.9317ZM438.647 111.01C438.058 114.229 437.548 117.523 437.123 120.891L440.042 121.691C440.46 118.376 440.961 115.135 441.54 111.969L438.647 111.01ZM436.136 130.803C435.894 134.099 435.73 137.459 435.649 140.882L438.59 141.375C438.67 138.003 438.831 134.693 439.07 131.448L436.136 130.803ZM435.652 151.066C435.732 154.386 435.887 157.76 436.122 161.187L439.057 161.389C438.825 158.01 438.672 154.683 438.593 151.411L435.652 151.066ZM437.07 171.617C437.441 174.914 437.885 178.256 438.404 181.642L441.308 181.574C440.796 178.231 440.358 174.933 439.991 171.68L437.07 171.617ZM440.189 191.933C440.84 195.299 441.564 198.705 442.364 202.152L445.22 201.833C444.429 198.427 443.714 195.061 443.071 191.737L440.189 191.933ZM444.878 212.186C445.787 215.568 446.768 218.985 447.823 222.438L450.618 221.891C449.574 218.475 448.604 215.095 447.705 211.752L444.878 212.186ZM451.03 232.368C452.139 235.629 453.314 238.919 454.556 242.239L457.281 241.487C456.052 238.2 454.889 234.943 453.791 231.716L451.03 232.368ZM458.484 252.287C459.787 255.48 461.151 258.7 462.578 261.945L465.227 261.006C463.813 257.79 462.462 254.601 461.172 251.437L458.484 252.287ZM466.939 271.522C468.453 274.738 470.03 277.978 471.669 281.242L474.239 280.135C472.614 276.899 471.051 273.686 469.549 270.498L466.939 271.522ZM476.571 290.719C478.192 293.764 479.867 296.828 481.597 299.911L484.089 298.656C482.371 295.596 480.71 292.556 479.102 289.536L476.571 290.719ZM486.955 309.218C488.797 312.339 490.696 315.479 492.652 318.638L495.063 317.247C493.121 314.11 491.236 310.992 489.407 307.894L486.955 309.218ZM498.199 327.404C500.093 330.336 502.037 333.283 504.031 336.246L506.366 334.737C504.385 331.794 502.454 328.866 500.572 325.953L498.199 327.404ZM510.165 345.179C512.232 348.131 514.349 351.099 516.517 354.08L518.775 352.462C516.62 349.498 514.516 346.548 512.462 343.614L510.165 345.179ZM522.692 362.431C524.794 365.227 526.941 368.035 529.132 370.855L531.32 369.141C529.14 366.337 527.005 363.544 524.915 360.764L522.692 362.431ZM535.843 379.35C538.124 382.194 540.452 385.049 542.826 387.917L544.942 386.114C542.58 383.261 540.264 380.421 537.994 377.592L535.843 379.35ZM549.47 395.831C551.724 398.478 554.017 401.134 556.35 403.801L558.4 401.922C556.078 399.268 553.796 396.624 551.554 393.989L549.47 395.831ZM563.467 411.828C565.88 414.513 568.333 417.207 570.827 419.911L572.813 417.96C570.33 415.268 567.888 412.585 565.486 409.912L563.467 411.828ZM578.138 427.739C580.496 430.233 582.888 432.734 585.316 435.244L587.242 433.229C584.824 430.73 582.441 428.238 580.092 425.754L578.138 427.739ZM592.704 442.793C595.203 445.318 597.736 447.849 600.306 450.388L602.173 448.314C599.613 445.785 597.089 443.263 594.601 440.749L592.704 442.793ZM608.122 458.026C609.442 459.302 610.772 460.581 612.111 461.861L613.935 459.746C612.601 458.47 611.276 457.196 609.96 455.924L608.122 458.026ZM612.111 461.861C613.483 463.173 614.851 464.469 616.215 465.747L618.013 463.607C616.659 462.337 615.299 461.05 613.935 459.746L612.111 461.861ZM624.343 473.213C627.034 475.634 629.707 477.988 632.363 480.275L634.047 478.033C631.412 475.763 628.758 473.426 626.086 471.022L624.343 473.213ZM640.275 486.94C643.106 489.269 645.916 491.523 648.705 493.701L650.256 491.349C647.491 489.19 644.705 486.956 641.897 484.645L640.275 486.94ZM657.375 500.279C660.242 502.391 663.086 504.422 665.908 506.373L667.292 503.898C664.501 501.968 661.685 499.958 658.846 497.866L657.375 500.279ZM674.51 512.122C677.633 514.136 680.728 516.051 683.793 517.868L684.973 515.263C681.945 513.468 678.888 511.576 675.8 509.584L674.51 512.122ZM692.903 523.031C695.963 524.684 698.993 526.238 701.993 527.695L702.923 524.955C699.968 523.519 696.981 521.988 693.963 520.357L692.903 523.031ZM711.762 532.142C714.982 533.51 718.165 534.763 721.313 535.903L721.928 533.03C718.836 531.909 715.707 530.678 712.539 529.333L711.762 532.142ZM731.032 539.107C734.408 540.107 737.741 540.976 741.03 541.715L741.264 538.73C738.044 538.006 734.778 537.155 731.466 536.174L731.032 539.107ZM750.763 543.549C754.185 544.067 757.556 544.441 760.876 544.676L760.671 541.626C757.429 541.397 754.135 541.031 750.788 540.524L750.763 543.549ZM770.723 544.964C774.04 544.921 777.303 544.734 780.51 544.407L779.83 541.364C776.703 541.682 773.52 541.865 770.283 541.907L770.723 544.964ZM790.112 542.984C793.271 542.366 796.372 541.607 799.415 540.713L798.267 537.762C795.299 538.634 792.274 539.374 789.193 539.976L790.112 542.984ZM808.432 537.605C811.37 536.439 814.249 535.141 817.068 533.717L815.501 530.931C812.746 532.322 809.934 533.59 807.066 534.729L808.432 537.605ZM825.268 529.121C827.942 527.469 830.558 525.698 833.115 523.815L831.205 521.24C828.699 523.086 826.137 524.819 823.52 526.436L825.268 529.121ZM840.398 518.013C842.77 515.975 845.088 513.835 847.349 511.598L845.173 509.251C842.95 511.449 840.675 513.551 838.346 515.55L840.398 518.013ZM853.79 504.8C855.862 502.471 857.883 500.055 859.853 497.557L857.477 495.434C855.536 497.894 853.546 500.273 851.507 502.566L853.79 504.8ZM865.53 489.938C867.322 487.392 869.068 484.774 870.767 482.088L868.241 480.176C866.563 482.828 864.841 485.411 863.073 487.922L865.53 489.938ZM875.723 473.83C877.272 471.11 878.778 468.33 880.24 465.493L877.603 463.776C876.156 466.582 874.668 469.33 873.137 472.018L875.723 473.83ZM884.475 456.86C885.828 453.959 887.14 451.007 888.41 448.004L885.688 446.466C884.431 449.44 883.132 452.363 881.792 455.234L884.475 456.86ZM892 439.093C893.157 436.078 894.274 433.018 895.351 429.918L892.566 428.544C891.499 431.618 890.392 434.651 889.245 437.639L892 439.093ZM898.405 420.678C899.373 417.598 900.303 414.481 901.196 411.331L898.363 410.11C897.477 413.236 896.554 416.327 895.595 419.382L898.405 420.678ZM903.761 401.782C904.561 398.635 905.326 395.459 906.054 392.255L903.185 391.176C902.462 394.357 901.703 397.511 900.909 400.634L903.761 401.782ZM908.124 382.598C908.778 379.354 909.396 376.086 909.979 372.795L907.082 371.852C906.504 375.121 905.89 378.367 905.24 381.588L908.124 382.598ZM911.592 363.033C912.096 359.759 912.565 356.465 912.999 353.154L910.083 352.34C909.651 355.63 909.185 358.903 908.685 362.156L911.592 363.033ZM914.197 343.185C914.558 339.878 914.886 336.557 915.18 333.223L912.25 332.535C911.958 335.848 911.632 339.149 911.273 342.435L914.197 343.185ZM915.96 323.183C916.187 319.828 916.379 316.463 916.538 313.089L913.599 312.524C913.441 315.878 913.25 319.223 913.025 322.557L915.96 323.183ZM916.911 302.976C917.002 299.598 917.06 296.214 917.084 292.825L914.142 292.384C914.118 295.752 914.061 299.116 913.971 302.473L916.911 302.976ZM917.055 282.639C917.012 279.234 916.934 275.826 916.823 272.418L913.883 272.101C913.993 275.488 914.07 278.875 914.113 282.259L917.055 282.639ZM916.389 262.196C916.209 258.778 915.996 255.361 915.748 251.948L912.814 251.758C913.061 255.149 913.273 258.545 913.451 261.942L916.389 262.196ZM914.897 241.66C914.578 238.236 914.225 234.818 913.837 231.409L910.916 231.35C911.301 234.737 911.652 238.133 911.968 241.535L914.897 241.66ZM912.559 221.126C912.094 217.678 911.592 214.241 911.055 210.817L908.152 210.896C908.686 214.297 909.184 217.71 909.646 221.136L912.559 221.126ZM909.335 200.587C908.717 197.14 908.061 193.709 907.368 190.297L904.492 190.523C905.18 193.91 905.831 197.316 906.445 200.738L909.335 200.587ZM905.158 180.027C904.384 176.625 903.571 173.243 902.721 169.885L899.881 170.271C900.724 173.601 901.53 176.956 902.299 180.332L905.158 180.027ZM899.983 159.624C899.026 156.215 898.029 152.834 896.992 149.483L894.201 150.043C895.229 153.364 896.217 156.715 897.166 160.095L899.983 159.624ZM893.738 139.469C892.578 136.061 891.374 132.689 890.126 129.355L887.401 130.108C888.636 133.407 889.828 136.746 890.977 140.122L893.738 139.469ZM886.253 119.474C884.887 116.145 883.476 112.861 882.018 109.623L879.382 110.59C880.822 113.79 882.218 117.038 883.569 120.33L886.253 119.474ZM877.425 99.8838C875.842 96.6796 874.211 93.5276 872.532 90.4312L870.015 91.6395C871.671 94.694 873.281 97.805 874.844 100.969L877.425 99.8838ZM867.134 80.9484C865.282 77.8504 863.378 74.8164 861.422 71.8505L859.068 73.3306C860.993 76.2496 862.868 79.2373 864.693 82.29L867.134 80.9484ZM855.224 62.9247C853.074 59.9857 850.867 57.1248 848.603 54.3467L846.469 56.1269C848.691 58.8535 850.858 61.6633 852.971 64.5519L855.224 62.9247ZM841.549 46.1667C839.089 43.4735 836.569 40.8736 833.986 38.3721L832.145 40.4708C834.672 42.9189 837.14 45.465 839.551 48.1044L841.549 46.1667ZM826.034 31.1488C823.281 28.809 820.464 26.5765 817.584 24.4565L816.114 26.87C818.926 28.9395 821.677 31.1201 824.367 33.4067L826.034 31.1488ZM808.754 18.4396C805.764 16.5613 802.713 14.7997 799.598 13.16L798.57 15.8504C801.606 17.4491 804.582 19.1668 807.498 20.9989L808.754 18.4396ZM790.071 8.61253C786.92 7.25952 783.71 6.02694 780.442 4.91941L779.891 7.8152C783.079 8.89557 786.209 10.0976 789.281 11.4168L790.071 8.61253ZM770.544 1.9974C768.866 1.57344 767.173 1.18141 765.466 0.821845L765.272 3.81555C766.94 4.16683 768.593 4.54972 770.231 4.96366L770.544 1.9974Z" fill="#45AB34"/>
</svg>
