<svg id="Layer_1" data-name="Layer 1" xmlns="http://www.w3.org/2000/svg" width="849.22" height="298.71" viewBox="0 0 849.22 298.71">
  <g>
    <g>
      <path d="M330.47,132.35a74.27,74.27,0,0,1-20.85-2.9q-10-2.91-16.07-7.55l7.1-15.75a49.65,49.65,0,0,0,13.68,6.78,51.28,51.28,0,0,0,16.14,2.64,31.9,31.9,0,0,0,10-1.29,12.44,12.44,0,0,0,5.62-3.42,7.45,7.45,0,0,0,1.8-5,6.78,6.78,0,0,0-2.84-5.74,23.38,23.38,0,0,0-7.55-3.49q-4.71-1.35-10.26-2.58t-11.16-3a45.05,45.05,0,0,1-10.33-4.64,21.94,21.94,0,0,1-7.49-7.62A23,23,0,0,1,295.49,67a25.44,25.44,0,0,1,4.13-14.13q4.13-6.39,12.58-10.2t21.24-3.81A69.51,69.51,0,0,1,350.28,41,49.71,49.71,0,0,1,364.8,46.9l-6.58,15.75a53.23,53.23,0,0,0-12.52-5.23,47.6,47.6,0,0,0-12.39-1.74A29.69,29.69,0,0,0,323.37,57a11.48,11.48,0,0,0-5.49,3.68,8.39,8.39,0,0,0-1.74,5.16A7,7,0,0,0,319,71.69a20.92,20.92,0,0,0,7.49,3.42c3.09.82,6.54,1.63,10.32,2.45a115.61,115.61,0,0,1,11.23,3,50.39,50.39,0,0,1,10.2,4.59,21,21,0,0,1,10.46,19.16,24.65,24.65,0,0,1-4.2,13.94q-4.2,6.33-12.71,10.2T330.47,132.35Z" style="fill: #45ab34"/>
      <path d="M400.43,130.8V57.49H371.51v-17h78.74v17H421.34V130.8Z" style="fill: #45ab34"/>
      <path d="M461.48,130.8V40.45h39.11q12.14,0,20.91,3.94a30.59,30.59,0,0,1,13.55,11.29,31.25,31.25,0,0,1,4.78,17.43q0,10.2-4.78,17.49a30,30,0,0,1-13.55,11.1q-8.78,3.81-20.91,3.81H473l9.55-9V130.8Zm21-32L473,88.85h26.46q9.56,0,14.46-4.13t4.9-11.61q0-7.48-4.9-11.56t-14.46-4.06H473l9.55-9.94Zm36.53,32L496.33,98h22.46l22.72,32.78Z" style="fill: #45ab34"/>
      <path d="M600.24,132.35a54.46,54.46,0,0,1-19.75-3.48,47.7,47.7,0,0,1-15.75-9.81,44.26,44.26,0,0,1-10.39-14.85,46.4,46.4,0,0,1-3.68-18.58A46.26,46.26,0,0,1,554.35,67,44.28,44.28,0,0,1,564.74,52.2a47.73,47.73,0,0,1,15.68-9.81,53.78,53.78,0,0,1,19.69-3.49,54.81,54.81,0,0,1,19.68,3.42,46.94,46.94,0,0,1,15.68,9.75,44.12,44.12,0,0,1,10.39,14.84,46.6,46.6,0,0,1,3.68,18.72,46.71,46.71,0,0,1-3.68,18.65,44.1,44.1,0,0,1-10.39,14.91,46.91,46.91,0,0,1-15.68,9.74A54.45,54.45,0,0,1,600.24,132.35Zm-.13-17.68a28.67,28.67,0,0,0,11.16-2.13,27,27,0,0,0,9-6.07,28,28,0,0,0,6-9.16,30.72,30.72,0,0,0,2.13-11.68A30.68,30.68,0,0,0,626.24,74a28,28,0,0,0-6-9.17,27.18,27.18,0,0,0-9-6.07,28.67,28.67,0,0,0-11.16-2.12,29.13,29.13,0,0,0-11.23,2.12,26.19,26.19,0,0,0-9,6.07A28.53,28.53,0,0,0,574,74a30.68,30.68,0,0,0-2.13,11.68A30.72,30.72,0,0,0,574,97.31a28.49,28.49,0,0,0,5.94,9.16,26,26,0,0,0,9,6.07A29.13,29.13,0,0,0,600.11,114.67Z" style="fill: #45ab34"/>
      <path d="M652.12,130.8l40.15-90.35h20.65l40.53,90.35H731.51L698.33,51h8.39L673.55,130.8Zm20.27-19.36,5.29-15.87h46.73l5.42,15.87Z" style="fill: #45ab34"/>
      <path d="M762.87,130.8V40.45h20.78V130.8Zm18.59-20.65-1-24.14,43.24-45.56H846.9l-38.85,42L796.17,94.79ZM824.7,130.8,792.56,91.57l13.68-15,43,54.21Z" style="fill: #45ab34"/>
      <path d="M344.28,245.74a54.87,54.87,0,0,1-19.69-3.42A46.37,46.37,0,0,1,309,232.58a44.67,44.67,0,0,1-10.33-14.85,49.43,49.43,0,0,1,0-37.43A44.26,44.26,0,0,1,309,165.46a46.75,46.75,0,0,1,15.75-9.75,60,60,0,0,1,41.5.58,42.84,42.84,0,0,1,16.2,11.62L369.06,180.3a32.83,32.83,0,0,0-10.71-7.68,31.44,31.44,0,0,0-12.65-2.52,33.36,33.36,0,0,0-12,2.07,26.47,26.47,0,0,0-15.43,15.1A31.2,31.2,0,0,0,316.14,199a30.79,30.79,0,0,0,2.13,11.61,27.2,27.2,0,0,0,6.07,9.23,26.2,26.2,0,0,0,9.29,6,32.51,32.51,0,0,0,11.81,2.07,37.31,37.31,0,0,0,12.07-2,34.71,34.71,0,0,0,11.42-6.78l11.88,15.1a54.6,54.6,0,0,1-17.1,8.52A66.41,66.41,0,0,1,344.28,245.74Zm17.42-14.2V197.6h19.11v36.65Z" style="fill: #058236"/>
      <path d="M413.08,244.19V153.84h39.11q12.12,0,20.91,3.94a30.53,30.53,0,0,1,13.55,11.29,31.58,31.58,0,0,1,4.78,17.55A31,31,0,0,1,486.65,204a30.34,30.34,0,0,1-13.55,11.16Q464.33,219,452.19,219h-27.5l9.3-9.16v34.33Zm20.91-32-9.3-9.81H451q9.68,0,14.45-4.19t4.78-11.56q0-7.49-4.78-11.61T451,170.88H424.69l9.3-9.94Zm36.53,32-22.59-32.78h22.33l22.84,32.78Z" style="fill: #058236"/>
      <path d="M564.74,245.74a55,55,0,0,1-19.81-3.48,47,47,0,0,1-15.75-9.81,45,45,0,0,1-10.33-14.85,48.89,48.89,0,0,1,0-37.17,44.55,44.55,0,0,1,10.39-14.85,47.88,47.88,0,0,1,15.75-9.8,57.09,57.09,0,0,1,39.31,0,47.15,47.15,0,0,1,15.61,9.8,47.14,47.14,0,0,1,10.39,52.09,44.6,44.6,0,0,1-10.39,14.84,47.68,47.68,0,0,1-15.61,9.75A53.67,53.67,0,0,1,564.74,245.74Zm-.13-17.81a29.42,29.42,0,0,0,11.17-2.07,26.64,26.64,0,0,0,9-5.93,27.13,27.13,0,0,0,6-9.17,33.45,33.45,0,0,0,0-23.49,27.54,27.54,0,0,0-5.94-9.16,25.9,25.9,0,0,0-9-5.94,29.87,29.87,0,0,0-11.23-2.07,29.36,29.36,0,0,0-11.16,2.07,26.67,26.67,0,0,0-9,5.94,27,27,0,0,0-6,9.16,33.28,33.28,0,0,0,0,23.43,27.45,27.45,0,0,0,5.94,9.23,25.88,25.88,0,0,0,9,5.93A29.91,29.91,0,0,0,564.61,227.93Z" style="fill: #058236"/>
      <path d="M682.85,245.74q-19.25,0-30.08-10.71t-10.84-30.59v-50.6h20.91v49.82q0,12.92,5.29,18.59T683,227.93q9.56,0,14.85-5.68t5.29-18.59V153.84h20.65v50.6q0,19.88-10.84,30.59T682.85,245.74Z" style="fill: #058236"/>
      <path d="M757.32,244.19V153.84h39.11q12.14,0,20.91,3.94a30.61,30.61,0,0,1,13.56,11.29,34.45,34.45,0,0,1,0,35,30.67,30.67,0,0,1-13.56,11.29q-8.77,3.94-20.91,3.94H768.94l9.29-9.42v34.33Zm20.91-32-9.29-9.94h26.33q9.69,0,14.46-4.13t4.77-11.49q0-7.49-4.77-11.61t-14.46-4.13H768.94l9.29-9.94Z" style="fill: #058236"/>
    </g>
    <g>
      <path d="M261.25,218.54c0,4.18-1.49,6.64-5.15,8.75q-60.57,34.82-121,70c-3.14,1.82-5.69,2-9,.09Q66,262.42,5.73,227.8c-4.08-2.34-6.09-5.16-5.6-9.86a31,31,0,0,0,0-7.14c-.68-5.28,1.73-8.28,6.2-10.84Q62.17,168,117.85,135.78q31.26-18,62.55-35.93c9.83-5.61,23.3,2.59,24.18,13.76.75,9.38-2.4,14.61-10.8,19.36C150,157.7,106.7,183.18,63.23,208.4c-1.5.87-2.93,1.87-4.48,2.65-4.34,2.19-3.58,3.94.17,6.08,16.55,9.47,33,19.07,49.52,28.62,5.81,3.36,11.72,6.57,17.42,10.12,3.38,2.11,6.18,1.92,9.6-.07,28.26-16.47,56.55-32.91,85-49,4.77-2.7,5.41-6.36,5-10.81-.49-4.8,2.58-11.55-1.63-13.89-3.57-2-8.22,3.48-12.27,5.81q-38.06,21.85-75.92,44c-3.63,2.13-6.53,2.14-10.13-.11-7.71-4.82-15.72-9.17-23.56-13.78-6.42-3.77-6.46-4.26.23-8.12q43.9-25.35,87.88-50.57,31.26-18,62.53-36c2.15-1.24,4.36-4,6.9-2.48,2.13,1.28,1.08,4.4,1.09,6.71.06,15,0,29.9,0,44.85" style="fill: #45ab34"/>
      <path d="M.37,125.52c0-14.74.19-29.47-.1-44.2C.17,76,1.78,72.66,6.63,69.88q58.63-33.57,117-67.68c4.92-2.87,9-3,13.8.06,6.74,4.32,13.78,8.17,20.73,12.17,6.78,3.89,6.84,4.29-.23,8.41Q127.56,40.48,97.16,58C78.8,68.66,60.54,79.49,42.05,89.89c-5,2.81-7.43,6.13-6.77,11.89a79.07,79.07,0,0,1,.06,9.74c-.07,5.28,2,5.92,6.33,3.37q32-18.7,64.09-37.15c24.39-14.07,48.89-27.95,73.15-42.23,5.74-3.38,10.19-3.35,16,.14C214.41,47.36,234.28,58.42,254,69.7c9.07,5.19,9.63,22.27.77,27.6C247,102,239,106.37,231.22,111c-3.72,2.23-6.32,1.59-5.48-2.9,2.35-12.55-9.69-16.94-16.7-21.73-5.69-3.87-10.22-7.81-15.95-11.67-4.21-2.83-7.68-2.6-11.93-.12q-66,38.46-132.06,76.68c-13.86,8-27.7,16.13-41.57,24.16C.79,179.37.23,179,.22,171q0-22.74,0-45.49Z" style="fill: #058236"/>
    </g>
  </g>
</svg>
